<svg version="1.1" id="Capa_1" xmlns="http://www.w3.org/2000/svg" xmlns:xlink="http://www.w3.org/1999/xlink" x="0px" y="0px" width="21px" height="21px" viewBox="0 0 21 21" style="enable-background:new 0 0 961.5 961.5;" xml:space="preserve"><g><path d="M6.893 18.572a1.311 1.311 0 0 0 -1.31 -1.31H3.276a0.657 0.657 0 0 1 -0.655 -0.655V4.393a0.657 0.657 0 0 1 0.655 -0.655h2.348c0.723 0 1.31 -0.588 1.31 -1.31s-0.588 -1.31 -1.31 -1.31h-2.348C1.47 1.117 0 2.587 0 4.394v12.213c0 1.806 1.47 3.276 3.276 3.276h2.304c0.725 0 1.313 -0.588 1.313 -1.31z" fill="rgb(255,255,255)"/><path d="M15.42 19.883h2.304C19.53 19.883 21 18.413 21 16.607V4.393c0 -1.806 -1.47 -3.276 -3.276 -3.276h-2.348c-0.723 0 -1.31 0.588 -1.31 1.31s0.588 1.31 1.31 1.31h2.348a0.657 0.657 0 0 1 0.655 0.655v12.213a0.657 0.657 0 0 1 -0.655 0.655H15.42c-0.723 0 -1.31 0.588 -1.31 1.31s0.588 1.31 1.31 1.31z" fill="rgb(255,255,255)"/><path d="M14.74 14.986c0.382 -0.601 0.574 -1.247 0.574 -1.937 0 -0.76 -0.159 -1.4 -0.48 -1.915 -0.321 -0.518 -0.762 -0.924 -1.33 -1.223 -0.566 -0.297 -1.439 -0.588 -2.621 -0.865 -1.182 -0.28 -1.926 -0.546 -2.232 -0.804 -0.24 -0.203 -0.36 -0.446 -0.36 -0.73 0 -0.312 0.129 -0.561 0.387 -0.747 0.4 -0.29 0.952 -0.435 1.658 -0.435 0.684 0 1.197 0.135 1.538 0.406 0.21 0.166 0.374 0.398 0.494 0.694a0.965 0.965 0 0 0 0.935 0.607l0.579 -0.026c0.649 -0.028 1.081 -0.679 0.861 -1.291 -0.199 -0.546 -0.522 -1.016 -0.974 -1.409 -0.762 -0.662 -1.9 -0.994 -3.409 -0.994 -0.924 0 -1.714 0.14 -2.368 0.419 -0.653 0.28 -1.153 0.686 -1.503 1.219 -0.347 0.533 -0.522 1.107 -0.522 1.719 0 0.952 0.369 1.758 1.107 2.42 0.524 0.47 1.439 0.867 2.741 1.19 1.011 0.251 1.66 0.426 1.944 0.524 0.415 0.148 0.708 0.321 0.874 0.522 0.166 0.199 0.251 0.441 0.251 0.725 0 0.443 -0.199 0.83 -0.594 1.162 -0.398 0.332 -0.985 0.496 -1.769 0.496 -0.738 0 -1.326 -0.186 -1.76 -0.557 -0.293 -0.251 -0.52 -0.599 -0.681 -1.042a0.96 0.96 0 0 0 -0.996 -0.629l-0.491 0.048c-0.609 0.059 -1.005 0.664 -0.823 1.247 0.249 0.797 0.658 1.441 1.223 1.929 0.815 0.703 1.983 1.055 3.503 1.055 1.044 0 1.918 -0.146 2.617 -0.439 0.708 -0.293 1.249 -0.74 1.631 -1.341z" fill="rgb(255,255,255)"/></g></svg>